<?xml version="1.0" encoding="utf-8"?>
<!-- Generator: Adobe Illustrator 16.0.0, SVG Export Plug-In . SVG Version: 6.00 Build 0)  -->
<!DOCTYPE svg PUBLIC "-//W3C//DTD SVG 1.1//EN" "http://www.w3.org/Graphics/SVG/1.1/DTD/svg11.dtd">
<svg version="1.1" id="Layer_1" xmlns="http://www.w3.org/2000/svg" xmlns:xlink="http://www.w3.org/1999/xlink" x="0px" y="0px"
	 width="2316px" height="1256px" viewBox="0 0 2316 1256" enable-background="new 0 0 2316 1256" xml:space="preserve">
<rect fill="#EAE9DF" width="2316" height="1256"/>
<path fill="#C1BDBD" d="M1856.737,713.609v-26.083h-13.042v-19.804h-23.668v-48.786h-48.786v-13.042h-15.938
	c-6.279-9.177-18.839-15.457-33.329-15.457s-27.05,6.279-33.328,15.457h-15.94v13.042h-49.269v48.786h-23.667v19.804h-13.042v26.083
	h-14.491v35.261h14.491v227.986h96.604V800.554c0-21.253,17.389-38.642,38.642-38.642s38.643,17.389,38.643,38.642v176.303h96.121
	V749.353h14.491v-35.26h-14.491V713.609z M1862.051,739.692h-14.491v227.504h-77.283V800.554c0-26.566-21.737-48.302-48.303-48.302
	c-26.566,0-48.303,21.736-48.303,48.302v166.643h-77.283V739.692h-14.491v-16.423h14.491v-26.083h13.042v-19.804h23.668v-48.785
	h48.785v-13.042h12.559l1.449-2.898c3.381-7.729,14.49-13.042,26.083-13.042s22.702,5.313,26.083,13.042l1.449,2.898h12.559v13.042
	h48.786v48.785h23.667v19.804h13.042v26.083h14.491V739.692z"/>
<g>
	<path fill="#C1BDBD" d="M1998.952,585.862c1.218-31.135-38.701-35.641-47.729-12.106c-9.576-2.123-17.545,4.331-18.785,12.246
		c-23.239,2.643-19.924,36.04,2.505,36.04h64.01C2022.9,622.042,2022.905,585.862,1998.952,585.862z M1998.952,616.476h-64.01
		c-15.279,0-19.164-25.047,2.782-25.047c-0.695-10.089,8.176-15.133,16.699-10.158c8.771-26.307,38.962-17.499,38.962,3.2v6.958
		h5.566C2015.539,591.429,2015.547,616.476,1998.952,616.476z"/>
</g>
<g>
	<path fill="#C1BDBD" d="M1741.512,498.268c1.148-29.351-36.483-33.599-44.994-11.413c-9.027-2.002-16.539,4.083-17.709,11.544
		c-21.907,2.492-18.782,33.975,2.361,33.975h60.342C1764.089,532.375,1764.094,498.268,1741.512,498.268z M1741.512,527.127h-60.342
		c-14.404,0-18.064-23.612,2.624-23.612c-0.657-9.51,7.706-14.266,15.74-9.576c8.269-24.799,36.73-16.496,36.73,3.017v6.559h5.247
		C1757.148,503.515,1757.155,527.127,1741.512,527.127z"/>
</g>
<g>
	<path fill="#C1BDBD" d="M1489.574,586.088c1.652-42.232-52.494-48.344-64.74-16.421c-12.989-2.88-23.798,5.874-25.481,16.61
		c-31.52,3.586-27.024,48.885,3.398,48.885h86.823C1522.059,635.162,1522.065,586.088,1489.574,586.088z M1489.574,627.612h-86.823
		c-20.725,0-25.993-33.975,3.774-33.975c-0.943-13.685,11.09-20.526,22.649-13.778c11.897-35.683,52.85-23.735,52.85,4.341v9.438
		h7.55C1512.074,593.638,1512.083,627.612,1489.574,627.612z"/>
</g>
<rect x="1588" y="999" fill="#C1BDBD" width="268" height="7"/>
</svg>
