<svg width="436" height="1144" fill="none" xmlns="http://www.w3.org/2000/svg">
  <g filter="url(#a)">
    <path d="M198 434.174V321.926a9 9 0 0 1 4.489-7.788l92.345-53.491a9 9 0 0 1 8.793-.128l94.235 50.982a9 9 0 0 1 4.718 7.916v111.704a9 9 0 0 1-4.361 7.712l-94.454 56.824a9 9 0 0 1-9.176.06l-92.126-53.77a9.001 9.001 0 0 1-4.463-7.773Z" fill="#161515"/>
  </g>
  <path d="M338.257 426.14a9.703 9.703 0 0 1-2.58-.34c-.813-.24-1.46-.526-1.94-.86l.96-1.9c.48.307 1.054.56 1.72.76.667.2 1.334.3 2 .3.787 0 1.354-.106 1.7-.32.36-.213.54-.5.54-.86a.724.724 0 0 0-.36-.66c-.24-.16-.553-.28-.94-.36-.386-.08-.82-.153-1.3-.22-.466-.066-.94-.153-1.42-.26a5.432 5.432 0 0 1-1.28-.5 2.755 2.755 0 0 1-.94-.9c-.24-.373-.36-.866-.36-1.48 0-.68.194-1.266.58-1.76.387-.506.927-.893 1.62-1.16.707-.28 1.54-.42 2.5-.42.72 0 1.447.08 2.18.24.734.16 1.34.387 1.82.68l-.96 1.9a4.871 4.871 0 0 0-1.54-.62 6.569 6.569 0 0 0-1.52-.18c-.76 0-1.326.114-1.7.34-.36.227-.54.514-.54.86 0 .32.12.56.36.72.24.16.554.287.94.38.387.094.814.174 1.28.24.48.054.954.14 1.42.26.467.12.894.287 1.28.5.4.2.72.487.96.86.24.374.36.86.36 1.46 0 .667-.2 1.247-.6 1.74-.386.494-.94.88-1.66 1.16-.72.267-1.58.4-2.58.4ZM329.176 426v-10.68h2.5V426h-2.5Zm1.26-12.44c-.467 0-.853-.147-1.16-.44a1.446 1.446 0 0 1-.44-1.06c0-.427.147-.78.44-1.06.307-.293.693-.44 1.16-.44.467 0 .847.14 1.14.42.307.267.46.607.46 1.02 0 .44-.147.813-.44 1.12-.293.293-.68.44-1.16.44ZM322.183 426.14a9.703 9.703 0 0 1-2.58-.34c-.813-.24-1.46-.526-1.94-.86l.96-1.9c.48.307 1.053.56 1.72.76.667.2 1.333.3 2 .3.787 0 1.353-.106 1.7-.32.36-.213.54-.5.54-.86a.724.724 0 0 0-.36-.66c-.24-.16-.553-.28-.94-.36-.387-.08-.82-.153-1.3-.22-.467-.066-.94-.153-1.42-.26a5.415 5.415 0 0 1-1.28-.5 2.746 2.746 0 0 1-.94-.9c-.24-.373-.36-.866-.36-1.48 0-.68.193-1.266.58-1.76.387-.506.927-.893 1.62-1.16.707-.28 1.54-.42 2.5-.42.72 0 1.447.08 2.18.24.733.16 1.34.387 1.82.68l-.96 1.9a4.88 4.88 0 0 0-1.54-.62 6.575 6.575 0 0 0-1.52-.18c-.76 0-1.327.114-1.7.34-.36.227-.54.514-.54.86 0 .32.12.56.36.72.24.16.553.287.94.38.387.094.813.174 1.28.24.48.054.953.14 1.42.26.467.12.893.287 1.28.5.4.2.72.487.96.86.24.374.36.86.36 1.46 0 .667-.2 1.247-.6 1.74-.387.494-.94.88-1.66 1.16-.72.267-1.58.4-2.58.4ZM308.337 430.02c-.52 0-1.04-.087-1.56-.26-.52-.174-.953-.414-1.3-.72l1-1.84c.254.226.54.406.86.54.32.133.647.2.98.2.454 0 .82-.114 1.1-.34.28-.227.54-.607.78-1.14l.62-1.4.2-.3 4.04-9.44h2.4l-5 11.54c-.333.8-.706 1.433-1.12 1.9-.4.466-.853.793-1.36.98-.493.186-1.04.28-1.64.28Zm2.2-3.64-4.82-11.06h2.6l3.92 9.22-1.7 1.84ZM301.676 426v-14.84h2.5V426h-2.5ZM296.108 426v-2.16l-.14-.46v-3.78c0-.733-.22-1.3-.66-1.7-.44-.413-1.107-.62-2-.62-.6 0-1.194.094-1.78.28a4.367 4.367 0 0 0-1.46.78l-.98-1.82c.573-.44 1.253-.766 2.04-.98.8-.226 1.626-.34 2.48-.34 1.546 0 2.74.374 3.58 1.12.853.734 1.28 1.874 1.28 3.42V426h-2.36Zm-3.36.14c-.8 0-1.5-.133-2.1-.4-.6-.28-1.067-.66-1.4-1.14a2.982 2.982 0 0 1-.48-1.66c0-.6.14-1.14.42-1.62.293-.48.766-.86 1.42-1.14.653-.28 1.52-.42 2.6-.42h3.1v1.66h-2.92c-.854 0-1.427.14-1.72.42-.294.267-.44.6-.44 1 0 .454.18.814.54 1.08.36.267.86.4 1.5.4.613 0 1.16-.14 1.64-.42.493-.28.846-.693 1.06-1.24l.42 1.5c-.24.627-.674 1.114-1.3 1.46-.614.347-1.394.52-2.34.52ZM281.896 415.2c.854 0 1.614.167 2.28.5a3.64 3.64 0 0 1 1.6 1.54c.387.68.58 1.56.58 2.64V426h-2.5v-5.8c0-.946-.226-1.653-.68-2.12-.44-.466-1.06-.7-1.86-.7-.586 0-1.106.12-1.56.36-.453.24-.806.6-1.06 1.08-.24.467-.36 1.06-.36 1.78v5.4h-2.5v-10.68h2.38v2.88l-.42-.88c.374-.68.914-1.2 1.62-1.56.72-.373 1.547-.56 2.48-.56ZM270.268 426v-2.16l-.14-.46v-3.78c0-.733-.22-1.3-.66-1.7-.44-.413-1.107-.62-2-.62-.6 0-1.194.094-1.78.28a4.367 4.367 0 0 0-1.46.78l-.98-1.82c.573-.44 1.253-.766 2.04-.98.8-.226 1.626-.34 2.48-.34 1.546 0 2.74.374 3.58 1.12.853.734 1.28 1.874 1.28 3.42V426h-2.36Zm-3.36.14c-.8 0-1.5-.133-2.1-.4-.6-.28-1.067-.66-1.4-1.14a2.982 2.982 0 0 1-.48-1.66c0-.6.14-1.14.42-1.62.293-.48.766-.86 1.42-1.14.653-.28 1.52-.42 2.6-.42h3.1v1.66h-2.92c-.854 0-1.427.14-1.72.42-.294.267-.44.6-.44 1 0 .454.18.814.54 1.08.36.267.86.4 1.5.4.613 0 1.16-.14 1.64-.42.493-.28.846-.693 1.06-1.24l.42 1.5c-.24.627-.674 1.114-1.3 1.46-.614.347-1.394.52-2.34.52ZM352.252 402v-10.68h2.38v2.94l-.28-.86c.32-.72.82-1.266 1.5-1.64.694-.373 1.554-.56 2.58-.56v2.38a1.265 1.265 0 0 0-.3-.04 2.017 2.017 0 0 0-.28-.02c-.946 0-1.7.28-2.26.84-.56.547-.84 1.367-.84 2.46V402h-2.5ZM344.162 402.14c-1.094 0-2.067-.233-2.92-.7a5.37 5.37 0 0 1-2.02-1.96c-.494-.826-.74-1.766-.74-2.82 0-1.066.246-2.006.74-2.82a5.232 5.232 0 0 1 2.02-1.94c.853-.466 1.826-.7 2.92-.7 1.106 0 2.086.234 2.94.7a5.107 5.107 0 0 1 2.02 1.92c.493.814.74 1.76.74 2.84 0 1.054-.247 1.994-.74 2.82a5.196 5.196 0 0 1-2.02 1.96c-.854.467-1.834.7-2.94.7Zm0-2.14c.613 0 1.16-.133 1.64-.4.48-.266.853-.653 1.12-1.16.28-.506.42-1.1.42-1.78 0-.693-.14-1.286-.42-1.78a2.774 2.774 0 0 0-1.12-1.16c-.48-.266-1.02-.4-1.62-.4-.614 0-1.16.134-1.64.4-.467.267-.84.654-1.12 1.16-.28.494-.42 1.087-.42 1.78 0 .68.14 1.274.42 1.78.28.507.653.894 1.12 1.16.48.267 1.02.4 1.62.4ZM335.257 402.14c-1.174 0-2.08-.3-2.72-.9-.64-.613-.96-1.513-.96-2.7v-9.58h2.5v9.52c0 .507.126.9.38 1.18.266.28.633.42 1.1.42.56 0 1.026-.147 1.4-.44l.7 1.78c-.294.24-.654.42-1.08.54-.427.12-.867.18-1.32.18Zm-5.44-8.74v-2h7.12v2h-7.12ZM325.455 402v-10.68h2.5V402h-2.5Zm1.26-12.44c-.466 0-.853-.147-1.16-.44a1.446 1.446 0 0 1-.44-1.06c0-.427.147-.78.44-1.06.307-.293.694-.44 1.16-.44.467 0 .847.14 1.14.42.307.267.46.607.46 1.02 0 .44-.146.813-.44 1.12-.293.293-.68.44-1.16.44ZM320.999 402.14c-1.174 0-2.08-.3-2.72-.9-.64-.613-.96-1.513-.96-2.7v-9.58h2.5v9.52c0 .507.126.9.38 1.18.266.28.633.42 1.1.42.56 0 1.026-.147 1.4-.44l.7 1.78c-.294.24-.654.42-1.08.54-.427.12-.867.18-1.32.18Zm-5.44-8.74v-2h7.12v2h-7.12ZM309.557 402.14c-1.186 0-2.226-.233-3.12-.7a5.305 5.305 0 0 1-2.06-1.96c-.48-.826-.72-1.766-.72-2.82 0-1.066.234-2.006.7-2.82a5.178 5.178 0 0 1 1.96-1.94c.84-.466 1.794-.7 2.86-.7 1.04 0 1.967.227 2.78.68a4.923 4.923 0 0 1 1.92 1.92c.467.827.7 1.8.7 2.92 0 .107-.006.227-.02.36 0 .134-.006.26-.02.38h-8.9v-1.66h7.58l-.98.52c.014-.613-.113-1.153-.38-1.62a2.905 2.905 0 0 0-1.1-1.1c-.453-.266-.98-.4-1.58-.4-.613 0-1.153.134-1.62.4-.453.267-.813.64-1.08 1.12-.253.467-.38 1.02-.38 1.66v.4c0 .64.147 1.207.44 1.7a2.93 2.93 0 0 0 1.24 1.14c.534.267 1.147.4 1.84.4.6 0 1.14-.093 1.62-.28.48-.186.907-.48 1.28-.88l1.34 1.54a4.77 4.77 0 0 1-1.82 1.3c-.72.294-1.546.44-2.48.44ZM296.746 402.14c-.866 0-1.66-.2-2.38-.6-.706-.4-1.273-1-1.7-1.8-.413-.813-.62-1.84-.62-3.08 0-1.253.2-2.28.6-3.08.414-.8.974-1.393 1.68-1.78.707-.4 1.514-.6 2.42-.6 1.054 0 1.98.227 2.78.68a4.958 4.958 0 0 1 1.92 1.9c.48.814.72 1.774.72 2.88 0 1.107-.24 2.074-.72 2.9a4.945 4.945 0 0 1-1.92 1.9c-.8.454-1.726.68-2.78.68Zm-5.92 3.74v-14.56h2.38v2.52l-.08 2.84.2 2.84v6.36h-2.5Zm5.64-5.88c.6 0 1.134-.133 1.6-.4.48-.266.86-.653 1.14-1.16.28-.506.42-1.1.42-1.78 0-.693-.14-1.286-.42-1.78a2.9 2.9 0 0 0-1.14-1.16c-.466-.266-1-.4-1.6-.4-.6 0-1.14.134-1.62.4a2.9 2.9 0 0 0-1.14 1.16c-.28.494-.42 1.087-.42 1.78 0 .68.14 1.274.42 1.78.28.507.66.894 1.14 1.16.48.267 1.02.4 1.62.4ZM283.252 391.2c.853 0 1.606.167 2.26.5.666.334 1.186.847 1.56 1.54.373.68.56 1.56.56 2.64V402h-2.5v-5.8c0-.946-.207-1.653-.62-2.12-.414-.466-1.007-.7-1.78-.7-.547 0-1.034.12-1.46.36-.414.24-.74.594-.98 1.06-.227.467-.34 1.06-.34 1.78V402h-2.5v-5.8c0-.946-.207-1.653-.62-2.12-.414-.466-1.007-.7-1.78-.7-.547 0-1.034.12-1.46.36-.414.24-.74.594-.98 1.06-.227.467-.34 1.06-.34 1.78V402h-2.5v-10.68h2.38v2.84l-.42-.84c.36-.693.88-1.22 1.56-1.58.693-.36 1.48-.54 2.36-.54 1 0 1.866.247 2.6.74.746.494 1.24 1.24 1.48 2.24l-.98-.34c.346-.8.92-1.44 1.72-1.92.8-.48 1.726-.72 2.78-.72ZM261.681 402.14c-1.093 0-2.067-.233-2.92-.7a5.378 5.378 0 0 1-2.02-1.96c-.493-.826-.74-1.766-.74-2.82 0-1.066.247-2.006.74-2.82a5.24 5.24 0 0 1 2.02-1.94c.853-.466 1.827-.7 2.92-.7 1.107 0 2.087.234 2.94.7a5.1 5.1 0 0 1 2.02 1.92c.493.814.74 1.76.74 2.84 0 1.054-.247 1.994-.74 2.82a5.19 5.19 0 0 1-2.02 1.96c-.853.467-1.833.7-2.94.7Zm0-2.14c.613 0 1.16-.133 1.64-.4.48-.266.853-.653 1.12-1.16.28-.506.42-1.1.42-1.78 0-.693-.14-1.286-.42-1.78a2.774 2.774 0 0 0-1.12-1.16c-.48-.266-1.02-.4-1.62-.4-.613 0-1.16.134-1.64.4-.467.267-.84.654-1.12 1.16-.28.494-.42 1.087-.42 1.78 0 .68.14 1.274.42 1.78.28.507.653.894 1.12 1.16.48.267 1.02.4 1.62.4ZM249.48 402.2a8.374 8.374 0 0 1-2.98-.52c-.907-.36-1.7-.86-2.38-1.5a7.014 7.014 0 0 1-1.56-2.3c-.373-.88-.56-1.84-.56-2.88 0-1.04.187-2 .56-2.88.373-.88.9-1.64 1.58-2.28a7.015 7.015 0 0 1 2.38-1.5c.907-.36 1.9-.54 2.98-.54 1.147 0 2.193.2 3.14.6a6.13 6.13 0 0 1 2.4 1.74l-1.68 1.58a4.973 4.973 0 0 0-1.7-1.22 4.945 4.945 0 0 0-2.04-.42c-.733 0-1.407.12-2.02.36-.6.24-1.127.58-1.58 1.02-.44.44-.787.96-1.04 1.56-.24.6-.36 1.26-.36 1.98s.12 1.38.36 1.98c.253.6.6 1.12 1.04 1.56.453.44.98.78 1.58 1.02.613.24 1.287.36 2.02.36.733 0 1.413-.133 2.04-.4.627-.28 1.193-.7 1.7-1.26l1.68 1.6a6.4 6.4 0 0 1-2.4 1.74c-.947.4-2 .6-3.16.6Z" fill="#DFDFDF"/>
  <mask id="b" style="mask-type:alpha" maskUnits="userSpaceOnUse" x="277" y="328" width="47" height="48">
    <path fill="#FCA61F" d="M277 328.274h47v47h-47z"/>
  </mask>
  <g mask="url(#b)">
    <path d="m314.306 370.574-5.728-5.679-4.308 4.308-1.371-1.371c-.751-.751-1.126-1.681-1.126-2.79 0-1.11.375-2.04 1.126-2.791l8.274-8.274c.751-.751 1.681-1.126 2.791-1.126 1.109 0 2.039.375 2.79 1.126l1.371 1.371-4.308 4.308 5.679 5.728c.391.392.587.849.587 1.371s-.196.979-.587 1.371l-2.448 2.448c-.392.391-.849.587-1.371.587s-.979-.196-1.371-.587Zm5.777-30.746-22.227 22.227.245.196c.751.751 1.126 1.681 1.126 2.791 0 1.109-.375 2.039-1.126 2.79l-1.371 1.371-4.308-4.308-5.728 5.679c-.392.391-.849.587-1.371.587s-.979-.196-1.371-.587l-2.448-2.448c-.392-.392-.587-.849-.587-1.371s.195-.979.587-1.371l5.679-5.728-4.308-4.308 1.371-1.371c.751-.751 1.681-1.126 2.79-1.126 1.11 0 2.04.375 2.791 1.126l.196.245 22.227-22.227h7.833v7.833Zm-29.473 9.694-9.693-9.694v-7.833h7.833l9.694 9.693-2.791 2.742-8.519-8.519h-2.301v2.301l8.519 8.519-2.742 2.791Zm4.505 9.742 21.052-21.052v-2.301h-2.301l-21.052 21.052 2.301 2.301Z" fill="#FCA61F"/>
  </g>
  <circle cx="300.747" cy="226.747" r="20.747" fill="#FCA61F"/>
  <path d="M295.574 232.192c-2.992 0-4.96-2.512-4.96-5.76v-.032c0-3.248 2.016-5.792 4.992-5.792 2.96 0 4.96 2.512 4.96 5.76v.032c0 3.248-2 5.792-4.992 5.792Zm.032-2.224c1.488 0 2.432-1.504 2.432-3.536v-.032c0-2.032-.992-3.568-2.464-3.568s-2.432 1.488-2.432 3.536v.032c0 2.048.976 3.568 2.464 3.568Zm6.363.864c0-.48.224-.896.64-1.232l3.184-2.608c1.392-1.136 1.936-1.76 1.936-2.688 0-.944-.624-1.456-1.504-1.456-.704 0-1.2.304-1.824.976-.16.176-.448.352-.832.352-.624 0-1.12-.496-1.12-1.12 0-.272.112-.56.288-.768.896-1.04 1.952-1.648 3.648-1.648 2.32 0 3.856 1.36 3.856 3.456v.032c0 1.872-.96 2.8-2.944 4.336l-1.824 1.408h3.904c.592 0 1.072.48 1.072 1.072 0 .592-.48 1.056-1.072 1.056h-6.08c-.768 0-1.328-.432-1.328-1.168Z" fill="#0E0E0E"/>
  <g filter="url(#c)">
    <path d="M38 227.728V115.48a9 9 0 0 1 4.489-7.787l92.345-53.491a8.999 8.999 0 0 1 8.793-.128l94.235 50.982a8.999 8.999 0 0 1 4.718 7.916v111.703a9 9 0 0 1-4.361 7.712l-94.454 56.824a9 9 0 0 1-9.176.061l-92.126-53.771A8.999 8.999 0 0 1 38 227.728Z" fill="#161515"/>
  </g>
  <path d="M162.062 214.367v-11.28c0-1.12.326-2.013.98-2.68.666-.68 1.613-1.02 2.84-1.02.44 0 .853.047 1.24.14.4.094.733.24 1 .44l-.68 1.88a1.826 1.826 0 0 0-.64-.32c-.24-.08-.487-.12-.74-.12-.52 0-.914.147-1.18.44-.267.28-.4.707-.4 1.28v1.2l.08 1.12v8.92h-2.5Zm-1.76-8.6v-2h7.12v2h-7.12ZM154.3 214.507c-1.186 0-2.226-.233-3.12-.7a5.305 5.305 0 0 1-2.06-1.96c-.48-.826-.72-1.766-.72-2.82 0-1.066.234-2.006.7-2.82a5.178 5.178 0 0 1 1.96-1.94c.84-.466 1.794-.7 2.86-.7 1.04 0 1.967.227 2.78.68a4.923 4.923 0 0 1 1.92 1.92c.467.827.7 1.8.7 2.92 0 .107-.006.227-.02.36 0 .134-.006.26-.02.38h-8.9v-1.66h7.58l-.98.52c.014-.613-.113-1.153-.38-1.62a2.905 2.905 0 0 0-1.1-1.1c-.453-.266-.98-.4-1.58-.4-.613 0-1.153.134-1.62.4-.453.267-.813.64-1.08 1.12-.253.467-.38 1.02-.38 1.66v.4c0 .64.147 1.207.44 1.7a2.93 2.93 0 0 0 1.24 1.14c.534.267 1.147.4 1.84.4.6 0 1.14-.093 1.62-.28.48-.186.907-.48 1.28-.88l1.34 1.54a4.77 4.77 0 0 1-1.82 1.3c-.72.294-1.546.44-2.48.44ZM143.499 214.367v-10.68h2.5v10.68h-2.5Zm1.26-12.44c-.467 0-.853-.146-1.16-.44a1.445 1.445 0 0 1-.44-1.06c0-.426.147-.78.44-1.06.307-.293.693-.44 1.16-.44.467 0 .847.14 1.14.42.307.267.46.607.46 1.02 0 .44-.147.814-.44 1.12-.293.294-.68.44-1.16.44ZM135.198 214.367v-10.68h2.38v2.94l-.28-.86c.32-.72.82-1.266 1.5-1.64.694-.373 1.554-.56 2.58-.56v2.38a1.265 1.265 0 0 0-.3-.04 2.017 2.017 0 0 0-.28-.02c-.946 0-1.7.28-2.26.84-.56.547-.84 1.367-.84 2.46v5.18h-2.5ZM120.224 214.367v-14h6.56c1.68 0 2.96.334 3.84 1 .88.654 1.32 1.534 1.32 2.64 0 .747-.174 1.387-.52 1.92-.347.52-.814.927-1.4 1.22-.574.28-1.2.42-1.88.42l.36-.72c.786 0 1.493.147 2.12.44.626.28 1.12.694 1.48 1.24.373.547.56 1.227.56 2.04 0 1.2-.46 2.134-1.38 2.8-.92.667-2.287 1-4.1 1h-6.96Zm2.6-2.04h4.2c.973 0 1.72-.16 2.24-.48.52-.32.78-.833.78-1.54 0-.693-.26-1.2-.78-1.52-.52-.333-1.267-.5-2.24-.5h-4.4v-2.02h3.88c.906 0 1.6-.16 2.08-.48.493-.32.74-.8.74-1.44 0-.653-.247-1.14-.74-1.46-.48-.32-1.174-.48-2.08-.48h-3.68v9.92ZM210.634 194.387c-.987 0-1.953-.133-2.9-.4-.933-.253-1.7-.626-2.3-1.12l1.12-1.88c.467.387 1.053.694 1.76.92.72.24 1.447.36 2.18.36 1.173 0 2.033-.273 2.58-.82.547-.533.82-1.34.82-2.42v-1.9l.2-2.42-.08-2.42v-2.6h2.38v9.06c0 1.934-.493 3.354-1.48 4.26-.987.92-2.413 1.38-4.28 1.38Zm-.32-4.5c-1.013 0-1.933-.213-2.76-.64a5.092 5.092 0 0 1-1.94-1.82c-.467-.773-.7-1.68-.7-2.72 0-1.026.233-1.926.7-2.7a4.952 4.952 0 0 1 1.94-1.8c.827-.426 1.747-.64 2.76-.64.907 0 1.72.18 2.44.54.72.36 1.293.92 1.72 1.68.44.76.66 1.734.66 2.92 0 1.187-.22 2.167-.66 2.94-.427.76-1 1.327-1.72 1.7-.72.36-1.533.54-2.44.54Zm.38-2.12c.627 0 1.187-.126 1.68-.38a2.87 2.87 0 0 0 1.14-1.08c.28-.466.42-1 .42-1.6 0-.6-.14-1.126-.42-1.58a2.589 2.589 0 0 0-1.14-1.06c-.493-.253-1.053-.38-1.68-.38s-1.193.127-1.7.38c-.493.24-.88.594-1.16 1.06-.267.454-.4.98-.4 1.58 0 .6.133 1.134.4 1.6.28.454.667.814 1.16 1.08a3.74 3.74 0 0 0 1.7.38ZM198.143 179.567c.853 0 1.613.167 2.28.5.68.334 1.213.847 1.6 1.54.387.68.58 1.56.58 2.64v6.12h-2.5v-5.8c0-.946-.227-1.653-.68-2.12-.44-.466-1.06-.7-1.86-.7-.587 0-1.107.12-1.56.36-.453.24-.807.6-1.06 1.08-.24.467-.36 1.06-.36 1.78v5.4h-2.5v-10.68h2.38v2.88l-.42-.88c.373-.68.913-1.2 1.62-1.56.72-.373 1.547-.56 2.48-.56ZM186.302 190.367v-10.68h2.5v10.68h-2.5Zm1.26-12.44c-.467 0-.853-.146-1.16-.44a1.445 1.445 0 0 1-.44-1.06c0-.426.147-.78.44-1.06.307-.293.693-.44 1.16-.44.467 0 .847.14 1.14.42.307.267.46.607.46 1.02 0 .44-.147.814-.44 1.12-.293.294-.68.44-1.16.44ZM177.091 190.507c-1.026 0-1.953-.226-2.78-.68a5.1 5.1 0 0 1-1.92-1.92c-.466-.813-.7-1.773-.7-2.88 0-1.106.234-2.066.7-2.88a4.972 4.972 0 0 1 1.92-1.9c.827-.453 1.754-.68 2.78-.68.894 0 1.694.2 2.4.6.707.387 1.267.98 1.68 1.78.414.8.62 1.827.62 3.08 0 1.24-.2 2.267-.6 3.08-.4.8-.953 1.4-1.66 1.8-.706.4-1.52.6-2.44.6Zm.3-2.14c.6 0 1.134-.133 1.6-.4.48-.266.86-.653 1.14-1.16.294-.506.44-1.1.44-1.78 0-.693-.146-1.286-.44-1.78a2.9 2.9 0 0 0-1.14-1.16c-.466-.266-1-.4-1.6-.4-.6 0-1.14.134-1.62.4a3.091 3.091 0 0 0-1.14 1.16c-.28.494-.42 1.087-.42 1.78 0 .68.14 1.274.42 1.78.294.507.674.894 1.14 1.16.48.267 1.02.4 1.62.4Zm3.24 2v-2.52l.1-2.84-.2-2.84v-6.64h2.48v14.84h-2.38ZM164.92 179.567c.854 0 1.614.167 2.28.5a3.64 3.64 0 0 1 1.6 1.54c.387.68.58 1.56.58 2.64v6.12h-2.5v-5.8c0-.946-.226-1.653-.68-2.12-.44-.466-1.06-.7-1.86-.7-.586 0-1.106.12-1.56.36-.453.24-.806.6-1.06 1.08-.24.467-.36 1.06-.36 1.78v5.4h-2.5v-10.68h2.38v2.88l-.42-.88c.374-.68.914-1.2 1.62-1.56.72-.373 1.547-.56 2.48-.56ZM153.292 190.367v-2.16l-.14-.46v-3.78c0-.733-.22-1.3-.66-1.7-.44-.413-1.107-.62-2-.62-.6 0-1.193.094-1.78.28a4.376 4.376 0 0 0-1.46.78l-.98-1.82c.573-.44 1.253-.766 2.04-.98a9.08 9.08 0 0 1 2.48-.34c1.547 0 2.74.374 3.58 1.12.853.734 1.28 1.874 1.28 3.42v6.26h-2.36Zm-3.36.14c-.8 0-1.5-.133-2.1-.4-.6-.28-1.067-.66-1.4-1.14a2.982 2.982 0 0 1-.48-1.66c0-.6.14-1.14.42-1.62.293-.48.767-.86 1.42-1.14.653-.28 1.52-.42 2.6-.42h3.1v1.66h-2.92c-.853 0-1.427.14-1.72.42-.293.267-.44.6-.44 1 0 .454.18.814.54 1.08.36.267.86.4 1.5.4.613 0 1.16-.14 1.64-.42.493-.28.847-.693 1.06-1.24l.42 1.5c-.24.627-.673 1.114-1.3 1.46-.613.347-1.393.52-2.34.52ZM142.255 190.507c-1.173 0-2.08-.3-2.72-.9-.64-.613-.96-1.513-.96-2.7v-9.58h2.5v9.52c0 .507.127.9.38 1.18.267.28.634.42 1.1.42.56 0 1.027-.147 1.4-.44l.7 1.78c-.293.24-.653.42-1.08.54-.426.12-.866.18-1.32.18Zm-5.44-8.74v-2h7.12v2h-7.12ZM131.243 190.507a9.692 9.692 0 0 1-2.58-.34c-.814-.24-1.46-.526-1.94-.86l.96-1.9c.48.307 1.053.56 1.72.76.666.2 1.333.3 2 .3.786 0 1.353-.106 1.7-.32.36-.213.54-.5.54-.86a.724.724 0 0 0-.36-.66c-.24-.16-.554-.28-.94-.36-.387-.08-.82-.153-1.3-.22-.467-.066-.94-.153-1.42-.26a5.398 5.398 0 0 1-1.28-.5 2.746 2.746 0 0 1-.94-.9c-.24-.373-.36-.866-.36-1.48 0-.68.193-1.266.58-1.76.386-.506.926-.893 1.62-1.16.706-.28 1.54-.42 2.5-.42.72 0 1.446.08 2.18.24.733.16 1.34.387 1.82.68l-.96 1.9a4.88 4.88 0 0 0-1.54-.62 6.582 6.582 0 0 0-1.52-.18c-.76 0-1.327.114-1.7.34-.36.227-.54.514-.54.86 0 .32.12.56.36.72.24.16.553.287.94.38.386.094.813.174 1.28.24.48.054.953.14 1.42.26.466.12.893.287 1.28.5.4.2.72.487.96.86.24.374.36.86.36 1.46 0 .667-.2 1.247-.6 1.74-.387.494-.94.88-1.66 1.16-.72.267-1.58.4-2.58.4ZM119.544 190.367v-10.68h2.38v2.94l-.28-.86c.32-.72.82-1.266 1.5-1.64.693-.373 1.553-.56 2.58-.56v2.38a1.279 1.279 0 0 0-.3-.04 2.028 2.028 0 0 0-.28-.02c-.947 0-1.7.28-2.26.84-.56.547-.84 1.367-.84 2.46v5.18h-2.5ZM112.123 190.507c-1.187 0-2.227-.233-3.12-.7a5.298 5.298 0 0 1-2.06-1.96c-.48-.826-.72-1.766-.72-2.82 0-1.066.233-2.006.7-2.82a5.171 5.171 0 0 1 1.96-1.94c.84-.466 1.793-.7 2.86-.7 1.04 0 1.966.227 2.78.68a4.936 4.936 0 0 1 1.92 1.92c.466.827.7 1.8.7 2.92 0 .107-.007.227-.02.36 0 .134-.007.26-.02.38h-8.9v-1.66h7.58l-.98.52c.013-.613-.114-1.153-.38-1.62a2.92 2.92 0 0 0-1.1-1.1c-.454-.266-.98-.4-1.58-.4-.614 0-1.154.134-1.62.4-.454.267-.814.64-1.08 1.12-.254.467-.38 1.02-.38 1.66v.4c0 .64.146 1.207.44 1.7a2.92 2.92 0 0 0 1.24 1.14c.533.267 1.146.4 1.84.4.6 0 1.14-.093 1.62-.28.48-.186.906-.48 1.28-.88l1.34 1.54c-.48.56-1.087.994-1.82 1.3-.72.294-1.547.44-2.48.44ZM97.892 190.507c-1.026 0-1.953-.226-2.78-.68a5.096 5.096 0 0 1-1.92-1.92c-.466-.813-.7-1.773-.7-2.88 0-1.106.233-2.066.7-2.88a4.968 4.968 0 0 1 1.92-1.9c.827-.453 1.754-.68 2.78-.68.894 0 1.694.2 2.4.6.707.387 1.267.98 1.68 1.78.414.8.62 1.827.62 3.08 0 1.24-.2 2.267-.6 3.08-.4.8-.953 1.4-1.66 1.8-.706.4-1.52.6-2.44.6Zm.3-2.14c.6 0 1.134-.133 1.6-.4.48-.266.86-.653 1.14-1.16.294-.506.44-1.1.44-1.78 0-.693-.146-1.286-.44-1.78a2.901 2.901 0 0 0-1.14-1.16c-.466-.266-1-.4-1.6-.4-.6 0-1.14.134-1.62.4a3.081 3.081 0 0 0-1.14 1.16c-.28.494-.42 1.087-.42 1.78 0 .68.14 1.274.42 1.78.293.507.674.894 1.14 1.16.48.267 1.02.4 1.62.4Zm3.24 2v-2.52l.1-2.84-.2-2.84v-6.64h2.48v14.84h-2.38ZM85.721 179.567c.854 0 1.614.167 2.28.5.68.334 1.214.847 1.6 1.54.387.68.58 1.56.58 2.64v6.12h-2.5v-5.8c0-.946-.226-1.653-.68-2.12-.44-.466-1.06-.7-1.86-.7-.586 0-1.106.12-1.56.36-.453.24-.806.6-1.06 1.08-.24.467-.36 1.06-.36 1.78v5.4h-2.5v-10.68h2.38v2.88l-.42-.88c.374-.68.914-1.2 1.62-1.56.72-.373 1.547-.56 2.48-.56ZM70.14 190.567c-1.92 0-3.427-.54-4.52-1.62-1.08-1.08-1.62-2.64-1.62-4.68v-7.9h2.6v7.8c0 1.44.307 2.487.92 3.14.627.654 1.507.98 2.64.98 1.133 0 2.007-.326 2.62-.98.613-.653.92-1.7.92-3.14v-7.8h2.56v7.9c0 2.04-.547 3.6-1.64 4.68-1.08 1.08-2.573 1.62-4.48 1.62Z" fill="#DFDFDF"/>
  <mask id="d" style="mask-type:alpha" maskUnits="userSpaceOnUse" x="116" y="112" width="48" height="48">
    <path fill="#FCA61F" d="M116 112h47.927v47.927H116z"/>
  </mask>
  <g mask="url(#d)">
    <path d="M139.964 155.934c-.866 0-1.648-.209-2.347-.625a4.53 4.53 0 0 1-1.647-1.672c-1.099 0-2.039-.391-2.821-1.173s-1.173-1.723-1.173-2.821v-7.089c-1.964-1.298-3.537-3.012-4.718-5.142-1.182-2.13-1.772-4.444-1.772-6.94 0-4.027 1.406-7.447 4.218-10.259 2.813-2.813 6.232-4.219 10.26-4.219 4.027 0 7.447 1.406 10.259 4.219 2.812 2.812 4.219 6.232 4.219 10.259 0 2.563-.591 4.893-1.773 6.99-1.181 2.096-2.754 3.794-4.718 5.092v7.089c0 1.098-.391 2.039-1.173 2.821s-1.722 1.173-2.82 1.173a4.54 4.54 0 0 1-3.994 2.297Zm-3.994-6.291h7.988v-1.797h-7.988v1.797Zm0-3.794h7.988v-1.897h-7.988v1.897Zm-.4-5.891h2.896v-5.392l-4.393-4.393 2.096-2.097 3.795 3.794 3.794-3.794 2.097 2.097-4.394 4.393v5.392h2.896a10.94 10.94 0 0 0 4.393-3.819c1.132-1.681 1.698-3.57 1.698-5.667 0-2.929-1.015-5.408-3.046-7.439-2.03-2.03-4.509-3.045-7.438-3.045-2.929 0-5.409 1.015-7.439 3.045-2.03 2.031-3.045 4.51-3.045 7.439 0 2.097.565 3.986 1.697 5.667 1.132 1.68 2.596 2.953 4.393 3.819Z" fill="#FCA61F"/>
  </g>
  <circle cx="140.747" cy="20.747" r="20.747" fill="#FCA61F"/>
  <path d="M137.384 25.807c-2.992 0-4.96-2.512-4.96-5.76v-.032c0-3.248 2.016-5.792 4.992-5.792 2.96 0 4.96 2.512 4.96 5.76v.032c0 3.248-2 5.792-4.992 5.792Zm.032-2.224c1.488 0 2.432-1.504 2.432-3.536v-.032c0-2.032-.992-3.568-2.464-3.568s-2.432 1.488-2.432 3.536v.032c0 2.048.976 3.568 2.464 3.568Zm8.602.912v-7.744l-.864.224a2.014 2.014 0 0 1-.432.064c-.576 0-1.072-.48-1.072-1.056 0-.496.32-.912.816-1.056l1.584-.464c.464-.128.816-.208 1.152-.208h.032c.672 0 1.216.544 1.216 1.216v9.024a1.215 1.215 0 1 1-2.432 0Z" fill="#0E0E0E"/>
  <g filter="url(#e)">
    <path d="M34 639.053V526.805a9 9 0 0 1 4.489-7.788l92.345-53.491a9 9 0 0 1 8.793-.128l94.235 50.982a8.999 8.999 0 0 1 4.718 7.916v111.703a8.998 8.998 0 0 1-4.361 7.712l-94.454 56.824a8.997 8.997 0 0 1-9.176.061l-92.126-53.771A8.999 8.999 0 0 1 34 639.053Z" fill="#161515"/>
  </g>
  <path d="M183.861 627.14a9.692 9.692 0 0 1-2.58-.34c-.814-.24-1.46-.526-1.94-.86l.96-1.9c.48.307 1.053.56 1.72.76.666.2 1.333.3 2 .3.786 0 1.353-.106 1.7-.32.36-.213.54-.5.54-.86a.724.724 0 0 0-.36-.66c-.24-.16-.554-.28-.94-.36-.387-.08-.82-.153-1.3-.22-.467-.066-.94-.153-1.42-.26a5.398 5.398 0 0 1-1.28-.5 2.746 2.746 0 0 1-.94-.9c-.24-.373-.36-.866-.36-1.48 0-.68.193-1.266.58-1.76.386-.506.926-.893 1.62-1.16.706-.28 1.54-.42 2.5-.42.72 0 1.446.08 2.18.24.733.16 1.34.387 1.82.68l-.96 1.9a4.88 4.88 0 0 0-1.54-.62 6.582 6.582 0 0 0-1.52-.18c-.76 0-1.327.114-1.7.34-.36.227-.54.514-.54.86 0 .32.12.56.36.72.24.16.553.287.94.38.386.094.813.174 1.28.24.48.054.953.14 1.42.26.466.12.893.287 1.28.5.4.2.72.487.96.86.24.374.36.86.36 1.46 0 .667-.2 1.247-.6 1.74-.387.494-.94.88-1.66 1.16-.72.267-1.58.4-2.58.4ZM164.679 627l-3.92-10.68h2.36l3.36 9.42h-1.12l3.52-9.42h2.1l3.42 9.42h-1.1l3.46-9.42h2.22l-3.94 10.68h-2.4l-3.12-8.34h.74l-3.18 8.34h-2.4ZM155.093 627.14c-1.187 0-2.227-.233-3.12-.7a5.298 5.298 0 0 1-2.06-1.96c-.48-.826-.72-1.766-.72-2.82 0-1.066.233-2.006.7-2.82a5.171 5.171 0 0 1 1.96-1.94c.84-.466 1.793-.7 2.86-.7 1.04 0 1.966.227 2.78.68a4.936 4.936 0 0 1 1.92 1.92c.466.827.7 1.8.7 2.92 0 .107-.007.227-.02.36 0 .134-.007.26-.02.38h-8.9v-1.66h7.58l-.981.52c.014-.613-.113-1.153-.379-1.62a2.92 2.92 0 0 0-1.1-1.1c-.454-.266-.98-.4-1.58-.4-.614 0-1.154.134-1.62.4-.454.267-.814.64-1.08 1.12-.254.467-.381 1.02-.381 1.66v.4c0 .64.147 1.207.441 1.7.293.494.706.874 1.239 1.14.534.267 1.147.4 1.841.4.6 0 1.14-.093 1.62-.28.48-.186.906-.48 1.28-.88l1.34 1.54c-.48.56-1.087.994-1.82 1.3-.72.294-1.547.44-2.48.44ZM144.291 627v-10.68h2.5V627h-2.5Zm1.26-12.44c-.466 0-.853-.147-1.16-.44a1.446 1.446 0 0 1-.44-1.06c0-.427.147-.78.44-1.06.307-.293.694-.44 1.16-.44.467 0 .847.14 1.14.42.307.267.46.607.46 1.02 0 .44-.146.813-.44 1.12-.293.293-.68.44-1.16.44ZM135.569 627l-4.58-10.68h2.6l3.94 9.42h-1.28l4.08-9.42h2.4l-4.58 10.68h-2.58ZM124.037 627v-10.68h2.38v2.94l-.28-.86c.32-.72.82-1.266 1.5-1.64.694-.373 1.554-.56 2.58-.56v2.38a1.265 1.265 0 0 0-.3-.04 2.017 2.017 0 0 0-.28-.02c-.946 0-1.7.28-2.26.84-.56.547-.84 1.367-.84 2.46V627h-2.5ZM116.616 627.14c-1.187 0-2.227-.233-3.12-.7a5.298 5.298 0 0 1-2.06-1.96c-.48-.826-.72-1.766-.72-2.82 0-1.066.233-2.006.7-2.82a5.171 5.171 0 0 1 1.96-1.94c.84-.466 1.793-.7 2.86-.7 1.04 0 1.967.227 2.78.68a4.936 4.936 0 0 1 1.92 1.92c.467.827.7 1.8.7 2.92 0 .107-.007.227-.02.36 0 .134-.007.26-.02.38h-8.9v-1.66h7.58l-.98.52c.013-.613-.113-1.153-.38-1.62a2.912 2.912 0 0 0-1.1-1.1c-.453-.266-.98-.4-1.58-.4-.613 0-1.153.134-1.62.4-.453.267-.813.64-1.08 1.12-.253.467-.38 1.02-.38 1.66v.4c0 .64.147 1.207.44 1.7.293.494.707.874 1.24 1.14.533.267 1.147.4 1.84.4.6 0 1.14-.093 1.62-.28.48-.186.907-.48 1.28-.88l1.34 1.54c-.48.56-1.087.994-1.82 1.3-.72.294-1.547.44-2.48.44ZM107.491 627.14c-1.173 0-2.08-.3-2.72-.9-.64-.613-.96-1.513-.96-2.7v-9.58h2.5v9.52c0 .507.127.9.38 1.18.267.28.633.42 1.1.42.56 0 1.027-.147 1.4-.44l.7 1.78c-.293.24-.653.42-1.08.54-.427.12-.867.18-1.32.18Zm-5.44-8.74v-2h7.12v2h-7.12ZM95.84 616.2c.853 0 1.613.167 2.28.5.68.334 1.213.847 1.6 1.54.386.68.58 1.56.58 2.64V627h-2.5v-5.8c0-.946-.227-1.653-.68-2.12-.44-.466-1.06-.7-1.86-.7-.587 0-1.107.12-1.56.36-.454.24-.807.6-1.06 1.08-.24.467-.36 1.06-.36 1.78v5.4h-2.5v-10.68h2.38v2.88l-.42-.88c.373-.68.913-1.2 1.62-1.56.72-.373 1.546-.56 2.48-.56ZM83.633 627v-14h2.6v14h-2.6ZM184.645 603.2c-.973 0-1.846-.16-2.62-.48-.773-.32-1.38-.76-1.82-1.32a3.05 3.05 0 0 1-.66-1.94c0-.666.147-1.266.44-1.8.294-.533.76-1.04 1.4-1.52.64-.493 1.46-.986 2.46-1.48.787-.386 1.4-.726 1.84-1.02.454-.293.767-.573.94-.84.187-.266.28-.546.28-.84 0-.4-.14-.72-.42-.96-.28-.253-.68-.38-1.2-.38-.56 0-1 .14-1.32.42-.306.267-.46.62-.46 1.06 0 .227.04.447.12.66.094.214.254.454.48.72.227.267.554.607.98 1.02l7.4 7.1-1.38 1.62-8-7.68c-.453-.44-.82-.846-1.1-1.22a4.008 4.008 0 0 1-.6-1.08c-.12-.36-.18-.726-.18-1.1 0-.653.167-1.226.5-1.72.334-.506.807-.893 1.42-1.16.614-.28 1.327-.42 2.14-.42.76 0 1.414.127 1.96.38.56.24.994.594 1.3 1.06.32.454.48 1 .48 1.64 0 .56-.14 1.08-.42 1.56-.28.467-.72.914-1.32 1.34-.586.427-1.373.874-2.36 1.34-.733.36-1.313.7-1.74 1.02-.426.32-.733.64-.92.96-.186.32-.28.674-.28 1.06 0 .387.114.727.34 1.02.24.294.574.527 1 .7.427.16.927.24 1.5.24.854 0 1.627-.186 2.32-.56.707-.386 1.3-.96 1.78-1.72s.827-1.7 1.04-2.82l2.02.66c-.28 1.347-.766 2.507-1.46 3.48-.68.96-1.52 1.7-2.52 2.22-1 .52-2.12.78-3.36.78ZM167.207 592.2c.853 0 1.613.167 2.28.5.68.333 1.213.847 1.6 1.54.386.68.58 1.56.58 2.64V603h-2.5v-5.8c0-.947-.227-1.653-.68-2.12-.44-.467-1.06-.7-1.86-.7-.587 0-1.107.12-1.56.36-.454.24-.807.6-1.06 1.08-.24.467-.36 1.06-.36 1.78v5.4h-2.5v-14.84h2.5v7.04l-.54-.88c.373-.68.913-1.2 1.62-1.56.72-.373 1.546-.56 2.48-.56ZM154.523 603.14c-1.12 0-2.12-.233-3-.7a5.347 5.347 0 0 1-2.04-1.96c-.493-.826-.74-1.766-.74-2.82 0-1.066.247-2.006.74-2.82a5.211 5.211 0 0 1 2.04-1.94c.88-.466 1.88-.7 3-.7 1.04 0 1.954.214 2.74.64a4.122 4.122 0 0 1 1.82 1.84l-1.92 1.12c-.32-.506-.713-.88-1.18-1.12a3.112 3.112 0 0 0-1.48-.36c-.613 0-1.166.134-1.66.4-.493.267-.88.654-1.16 1.16-.28.494-.42 1.087-.42 1.78 0 .694.14 1.294.42 1.8.28.494.667.874 1.16 1.14.494.267 1.047.4 1.66.4.534 0 1.027-.12 1.48-.36.467-.24.86-.613 1.18-1.12l1.92 1.12c-.413.8-1.02 1.42-1.82 1.86-.786.427-1.7.64-2.74.64ZM141.42 603v-10.68h2.38v2.94l-.28-.86c.32-.72.82-1.266 1.5-1.64.693-.373 1.553-.56 2.58-.56v2.38a1.279 1.279 0 0 0-.3-.04 2.028 2.028 0 0 0-.28-.02c-.947 0-1.7.28-2.26.84-.56.547-.84 1.367-.84 2.46V603h-2.5ZM135.852 603v-2.16l-.14-.46v-3.78c0-.733-.22-1.3-.66-1.7-.44-.413-1.107-.62-2-.62-.6 0-1.194.094-1.78.28a4.367 4.367 0 0 0-1.46.78l-.98-1.82c.573-.44 1.253-.766 2.04-.98.8-.226 1.626-.34 2.48-.34 1.546 0 2.74.374 3.58 1.12.853.734 1.28 1.874 1.28 3.42V603h-2.36Zm-3.36.14c-.8 0-1.5-.133-2.1-.4-.6-.28-1.067-.66-1.4-1.14a2.982 2.982 0 0 1-.48-1.66c0-.6.14-1.14.42-1.62.293-.48.766-.86 1.42-1.14.653-.28 1.52-.42 2.6-.42h3.1v1.66h-2.92c-.854 0-1.427.14-1.72.42-.294.267-.44.6-.44 1 0 .454.18.814.54 1.08.36.267.86.4 1.5.4.613 0 1.16-.14 1.64-.42.493-.28.846-.693 1.06-1.24l.42 1.5c-.24.627-.674 1.114-1.3 1.46-.614.347-1.394.52-2.34.52ZM122.143 603.14c-1.186 0-2.226-.233-3.12-.7a5.305 5.305 0 0 1-2.06-1.96c-.48-.826-.72-1.766-.72-2.82 0-1.066.234-2.006.7-2.82a5.178 5.178 0 0 1 1.96-1.94c.84-.466 1.794-.7 2.86-.7 1.04 0 1.967.227 2.78.68a4.923 4.923 0 0 1 1.92 1.92c.467.827.7 1.8.7 2.92 0 .107-.006.227-.02.36 0 .134-.006.26-.02.38h-8.9v-1.66h7.58l-.98.52c.014-.613-.113-1.153-.38-1.62a2.905 2.905 0 0 0-1.1-1.1c-.453-.266-.98-.4-1.58-.4-.613 0-1.153.134-1.62.4-.453.267-.813.64-1.08 1.12-.253.467-.38 1.02-.38 1.66v.4c0 .64.147 1.207.44 1.7a2.93 2.93 0 0 0 1.24 1.14c.534.267 1.147.4 1.84.4.6 0 1.14-.093 1.62-.28.48-.186.907-.48 1.28-.88l1.34 1.54a4.77 4.77 0 0 1-1.82 1.3c-.72.294-1.546.44-2.48.44ZM110.13 603.14a9.703 9.703 0 0 1-2.58-.34c-.813-.24-1.46-.526-1.94-.86l.96-1.9c.48.307 1.054.56 1.72.76.667.2 1.334.3 2 .3.787 0 1.354-.106 1.7-.32.36-.213.54-.5.54-.86a.724.724 0 0 0-.36-.66c-.24-.16-.553-.28-.94-.36-.386-.08-.82-.153-1.3-.22-.466-.066-.94-.153-1.42-.26a5.432 5.432 0 0 1-1.28-.5 2.755 2.755 0 0 1-.94-.9c-.24-.373-.36-.866-.36-1.48 0-.68.194-1.266.58-1.76.387-.506.927-.893 1.62-1.16.707-.28 1.54-.42 2.5-.42.72 0 1.447.08 2.18.24.734.16 1.34.387 1.82.68l-.96 1.9a4.871 4.871 0 0 0-1.54-.62 6.569 6.569 0 0 0-1.52-.18c-.76 0-1.326.114-1.7.34-.36.227-.54.514-.54.86 0 .32.12.56.36.72.24.16.554.287.94.38.387.094.814.174 1.28.24.48.054.954.14 1.42.26.467.12.894.287 1.28.5.4.2.72.487.96.86.24.374.36.86.36 1.46 0 .667-.2 1.247-.6 1.74-.386.494-.94.88-1.66 1.16-.72.267-1.58.4-2.58.4ZM99.409 603.14c-1.187 0-2.227-.233-3.12-.7a5.3 5.3 0 0 1-2.06-1.96c-.48-.826-.72-1.766-.72-2.82 0-1.066.233-2.006.7-2.82a5.173 5.173 0 0 1 1.96-1.94c.84-.466 1.793-.7 2.86-.7 1.04 0 1.967.227 2.78.68a4.936 4.936 0 0 1 1.92 1.92c.467.827.7 1.8.7 2.92 0 .107-.007.227-.02.36 0 .134-.007.26-.02.38h-8.9v-1.66h7.58l-.98.52c.013-.613-.113-1.153-.38-1.62a2.912 2.912 0 0 0-1.1-1.1c-.453-.266-.98-.4-1.58-.4-.613 0-1.153.134-1.62.4-.453.267-.813.64-1.08 1.12-.253.467-.38 1.02-.38 1.66v.4c0 .64.147 1.207.44 1.7.293.494.707.874 1.24 1.14.533.267 1.147.4 1.84.4.6 0 1.14-.093 1.62-.28.48-.186.907-.48 1.28-.88l1.34 1.54c-.48.56-1.087.994-1.82 1.3-.72.294-1.547.44-2.48.44ZM80 603v-14h5.76c1.24 0 2.3.2 3.18.6.893.4 1.58.973 2.06 1.72s.72 1.633.72 2.66c0 1.027-.24 1.913-.72 2.66-.48.733-1.167 1.3-2.06 1.7-.88.387-1.94.58-3.18.58h-4.32l1.16-1.18V603H80Zm9.16 0-3.54-5.08h2.78l3.56 5.08h-2.8Zm-6.56-4.98-1.16-1.24h4.2c1.147 0 2.007-.247 2.58-.74.587-.493.88-1.18.88-2.06 0-.893-.293-1.58-.88-2.06-.573-.48-1.433-.72-2.58-.72h-4.2l1.16-1.28v8.1Z" fill="#DFDFDF"/>
  <mask id="f" style="mask-type:alpha" maskUnits="userSpaceOnUse" x="113" y="531" width="47" height="48">
    <path fill="#FCA61F" d="M113 531.706h47v47h-47z"/>
  </mask>
  <g mask="url(#f)">
    <path d="M128.667 574.789c-2.709 0-5.019-.954-6.928-2.864-1.909-1.909-2.864-4.218-2.864-6.927v-17.625c-1.077 0-1.999-.384-2.766-1.151-.767-.767-1.151-1.689-1.151-2.766v-3.917c0-1.077.384-1.999 1.151-2.766.767-.767 1.689-1.15 2.766-1.15h19.583c1.077 0 1.999.383 2.766 1.15.767.767 1.151 1.689 1.151 2.766v3.917c0 1.077-.384 1.999-1.151 2.766-.767.767-1.689 1.151-2.766 1.151v5.924a12.967 12.967 0 0 0-3.5 3.304c-.963 1.322-1.64 2.815-2.032 4.48h-4.259v-3.917h5.875v-1.958h-5.875v-3.917h5.875v-3.916h-11.75v17.625c0 1.632.571 3.019 1.713 4.161 1.143 1.142 2.53 1.714 4.162 1.714a5.75 5.75 0 0 0 2.692-.637 5.937 5.937 0 0 0 2.057-1.762c.261.652.554 1.273.881 1.86.326.588.718 1.159 1.175 1.714a9.964 9.964 0 0 1-3.06 2.007c-1.159.489-2.407.734-3.745.734Zm0-7.833v-3.917h3.965a11.245 11.245 0 0 0-.024 1.959c.049.652.155 1.305.318 1.958h-4.259Zm-9.792-23.5h19.583v-3.917h-19.583v3.917Zm26.437 25.458c1.371 0 2.53-.473 3.477-1.42.946-.946 1.419-2.105 1.419-3.476 0-1.37-.473-2.529-1.419-3.476-.947-.946-2.106-1.419-3.477-1.419-1.37 0-2.529.473-3.476 1.419-.946.947-1.419 2.106-1.419 3.476 0 1.371.473 2.53 1.419 3.476.947.947 2.106 1.42 3.476 1.42Zm9.988 7.834-5.288-5.288c-.718.457-1.468.8-2.252 1.028a8.676 8.676 0 0 1-2.448.343c-2.447 0-4.528-.857-6.242-2.57-1.713-1.714-2.57-3.795-2.57-6.243 0-2.448.857-4.528 2.57-6.242 1.714-1.713 3.795-2.57 6.242-2.57 2.448 0 4.529.857 6.243 2.57 1.713 1.714 2.57 3.794 2.57 6.242 0 .849-.114 1.665-.343 2.448a8.709 8.709 0 0 1-1.028 2.252l5.288 5.288-2.742 2.742Z" fill="#FCA61F"/>
  </g>
  <circle cx="136.747" cy="431.747" r="20.747" fill="#FCA61F"/>
  <path d="M131.09 437.192c-2.992 0-4.96-2.512-4.96-5.76v-.032c0-3.248 2.016-5.792 4.992-5.792 2.96 0 4.96 2.512 4.96 5.76v.032c0 3.248-2 5.792-4.992 5.792Zm.032-2.224c1.488 0 2.432-1.504 2.432-3.536v-.032c0-2.032-.992-3.568-2.464-3.568s-2.432 1.488-2.432 3.536v.032c0 2.048.976 3.568 2.464 3.568Zm10.651 2.224c-1.6 0-2.8-.496-3.712-1.28a1.215 1.215 0 0 1-.416-.88c0-.64.544-1.184 1.184-1.184.352 0 .592.144.784.304.64.544 1.312.832 2.192.832.928 0 1.584-.528 1.584-1.36v-.032c0-.912-.816-1.424-2.192-1.424h-.384c-.576 0-1.056-.48-1.056-1.056 0-.336.144-.624.528-1.008l2.176-2.192h-3.44c-.576 0-1.056-.48-1.056-1.056 0-.576.48-1.056 1.056-1.056h5.456c.72 0 1.248.416 1.248 1.088 0 .608-.288.944-.736 1.376l-2.192 2.096c1.52.256 3.008 1.056 3.008 3.136v.032c0 2.112-1.536 3.664-4.032 3.664Z" fill="#0E0E0E"/>
  <g filter="url(#g)">
    <path d="M201 834.053V721.805a9 9 0 0 1 4.489-7.788l92.345-53.491a9 9 0 0 1 8.793-.128l94.235 50.982a8.999 8.999 0 0 1 4.718 7.916v111.703a8.998 8.998 0 0 1-4.361 7.712l-94.454 56.824a8.997 8.997 0 0 1-9.176.061l-92.126-53.771a8.998 8.998 0 0 1-4.463-7.772Z" fill="#161515"/>
  </g>
  <path d="M340.002 821.494c.853 0 1.613.167 2.28.5.68.333 1.213.847 1.6 1.54.386.68.58 1.56.58 2.64v6.12h-2.5v-5.8c0-.947-.227-1.653-.68-2.12-.44-.467-1.06-.7-1.86-.7-.587 0-1.107.12-1.56.36-.454.24-.807.6-1.06 1.08-.24.467-.36 1.06-.36 1.78v5.4h-2.5v-10.68h2.38v2.88l-.42-.88c.373-.68.913-1.2 1.62-1.56.72-.373 1.546-.56 2.48-.56ZM325.851 832.434c-1.093 0-2.067-.233-2.92-.7a5.378 5.378 0 0 1-2.02-1.96c-.493-.827-.74-1.767-.74-2.82 0-1.067.247-2.007.74-2.82a5.232 5.232 0 0 1 2.02-1.94c.853-.467 1.827-.7 2.92-.7 1.107 0 2.087.233 2.94.7a5.1 5.1 0 0 1 2.02 1.92c.493.813.74 1.76.74 2.84 0 1.053-.247 1.993-.74 2.82a5.19 5.19 0 0 1-2.02 1.96c-.853.467-1.833.7-2.94.7Zm0-2.14c.613 0 1.16-.133 1.64-.4s.853-.653 1.12-1.16c.28-.507.42-1.1.42-1.78 0-.693-.14-1.287-.42-1.78a2.769 2.769 0 0 0-1.12-1.16c-.48-.267-1.02-.4-1.62-.4-.613 0-1.16.133-1.64.4-.467.267-.84.653-1.12 1.16-.28.493-.42 1.087-.42 1.78 0 .68.14 1.273.42 1.78.28.507.653.893 1.12 1.16.48.267 1.02.4 1.62.4ZM315.27 832.294v-10.68h2.5v10.68h-2.5Zm1.26-12.44c-.467 0-.854-.147-1.16-.44a1.442 1.442 0 0 1-.44-1.06c0-.427.146-.78.44-1.06.306-.293.693-.44 1.16-.44.466 0 .846.14 1.14.42.306.267.46.607.46 1.02 0 .44-.147.813-.44 1.12-.294.293-.68.44-1.16.44ZM310.813 832.434c-1.173 0-2.08-.3-2.72-.9-.64-.613-.96-1.513-.96-2.7v-9.58h2.5v9.52c0 .507.127.9.38 1.18.267.28.634.42 1.1.42.56 0 1.027-.147 1.4-.44l.7 1.78c-.293.24-.653.42-1.08.54-.426.12-.866.18-1.32.18Zm-5.44-8.74v-2h7.12v2h-7.12ZM301.225 832.294v-2.16l-.14-.46v-3.78c0-.733-.22-1.3-.66-1.7-.44-.413-1.107-.62-2-.62-.6 0-1.194.093-1.78.28a4.367 4.367 0 0 0-1.46.78l-.98-1.82c.573-.44 1.253-.767 2.04-.98.8-.227 1.626-.34 2.48-.34 1.546 0 2.74.373 3.58 1.12.853.733 1.28 1.873 1.28 3.42v6.26h-2.36Zm-3.36.14c-.8 0-1.5-.133-2.1-.4-.6-.28-1.067-.66-1.4-1.14a2.985 2.985 0 0 1-.48-1.66c0-.6.14-1.14.42-1.62.293-.48.766-.86 1.42-1.14.653-.28 1.52-.42 2.6-.42h3.1v1.66h-2.92c-.854 0-1.427.14-1.72.42-.294.267-.44.6-.44 1 0 .453.18.813.54 1.08.36.267.86.4 1.5.4.613 0 1.16-.14 1.64-.42.493-.28.846-.693 1.06-1.24l.42 1.5c-.24.627-.674 1.113-1.3 1.46-.614.347-1.394.52-2.34.52ZM287.106 832.294v-10.68h2.38v2.94l-.28-.86c.32-.72.82-1.267 1.5-1.64.693-.373 1.553-.56 2.58-.56v2.38a1.228 1.228 0 0 0-.3-.04 2.04 2.04 0 0 0-.28-.02c-.947 0-1.7.28-2.26.84-.56.547-.84 1.367-.84 2.46v5.18h-2.5ZM279.684 832.434c-1.186 0-2.226-.233-3.12-.7a5.305 5.305 0 0 1-2.06-1.96c-.48-.827-.72-1.767-.72-2.82 0-1.067.234-2.007.7-2.82a5.171 5.171 0 0 1 1.96-1.94c.84-.467 1.794-.7 2.86-.7 1.04 0 1.967.227 2.78.68a4.91 4.91 0 0 1 1.92 1.92c.467.827.7 1.8.7 2.92 0 .107-.006.227-.02.36 0 .133-.006.26-.02.38h-8.9v-1.66h7.58l-.98.52c.014-.613-.113-1.153-.38-1.62a2.898 2.898 0 0 0-1.1-1.1c-.453-.267-.98-.4-1.58-.4-.613 0-1.153.133-1.62.4-.453.267-.813.64-1.08 1.12-.253.467-.38 1.02-.38 1.66v.4c0 .64.147 1.207.44 1.7.294.493.707.873 1.24 1.14.534.267 1.147.4 1.84.4.6 0 1.14-.093 1.62-.28a3.45 3.45 0 0 0 1.28-.88l1.34 1.54c-.48.56-1.086.993-1.82 1.3-.72.293-1.546.44-2.48.44ZM270.559 832.434c-1.173 0-2.08-.3-2.72-.9-.64-.613-.96-1.513-.96-2.7v-9.58h2.5v9.52c0 .507.127.9.38 1.18.267.28.634.42 1.1.42.56 0 1.027-.147 1.4-.44l.7 1.78c-.293.24-.653.42-1.08.54-.426.12-.866.18-1.32.18Zm-5.44-8.74v-2h7.12v2h-7.12ZM260.393 832.294v-14h2.6v14h-2.6ZM340.185 808.494c-.974 0-1.847-.16-2.62-.48-.774-.32-1.38-.76-1.82-1.32a3.052 3.052 0 0 1-.66-1.94c0-.667.146-1.267.44-1.8.293-.534.76-1.04 1.4-1.52.64-.494 1.46-.987 2.46-1.48.786-.387 1.4-.727 1.84-1.02.453-.294.766-.574.94-.84.186-.267.28-.547.28-.84 0-.4-.14-.72-.42-.96-.28-.254-.68-.38-1.2-.38-.56 0-1 .14-1.32.42-.307.266-.46.62-.46 1.06 0 .226.04.446.12.66.093.213.253.453.48.72.226.266.553.606.98 1.02l7.4 7.1-1.38 1.62-8-7.68c-.454-.44-.82-.847-1.1-1.22a4.038 4.038 0 0 1-.6-1.08c-.12-.36-.18-.727-.18-1.1 0-.654.166-1.227.5-1.72.333-.507.806-.894 1.42-1.16.613-.28 1.326-.42 2.14-.42.76 0 1.413.126 1.96.38.56.24.993.593 1.3 1.06.32.453.48 1 .48 1.64 0 .56-.14 1.08-.42 1.56-.28.466-.72.913-1.32 1.34-.587.426-1.374.873-2.36 1.34-.734.36-1.314.7-1.74 1.02-.427.32-.734.64-.92.96-.187.32-.28.673-.28 1.06 0 .386.113.726.34 1.02.24.293.573.526 1 .7.426.16.926.24 1.5.24.853 0 1.626-.187 2.32-.56.706-.387 1.3-.96 1.78-1.72s.826-1.7 1.04-2.82l2.02.66c-.28 1.346-.767 2.506-1.46 3.48-.68.96-1.52 1.7-2.52 2.22-1 .52-2.12.78-3.36.78ZM322.746 797.494c.853 0 1.613.167 2.28.5.68.333 1.213.847 1.6 1.54.386.68.58 1.56.58 2.64v6.12h-2.5v-5.8c0-.947-.227-1.653-.68-2.12-.44-.467-1.06-.7-1.86-.7-.587 0-1.107.12-1.56.36-.454.24-.807.6-1.06 1.08-.24.467-.36 1.06-.36 1.78v5.4h-2.5v-10.68h2.38v2.88l-.42-.88c.373-.68.913-1.2 1.62-1.56.72-.373 1.546-.56 2.48-.56ZM307.639 812.314c-.987 0-1.953-.133-2.9-.4-.933-.253-1.7-.627-2.3-1.12l1.12-1.88c.467.387 1.053.693 1.76.92.72.24 1.447.36 2.18.36 1.173 0 2.033-.273 2.58-.82.547-.533.82-1.34.82-2.42v-1.9l.2-2.42-.08-2.42v-2.6h2.38v9.06c0 1.933-.493 3.353-1.48 4.26-.987.92-2.413 1.38-4.28 1.38Zm-.32-4.5c-1.013 0-1.933-.213-2.76-.64a5.1 5.1 0 0 1-1.94-1.82c-.467-.773-.7-1.68-.7-2.72 0-1.027.233-1.927.7-2.7a4.952 4.952 0 0 1 1.94-1.8c.827-.427 1.747-.64 2.76-.64.907 0 1.72.18 2.44.54.72.36 1.293.92 1.72 1.68.44.76.66 1.733.66 2.92 0 1.187-.22 2.167-.66 2.94-.427.76-1 1.327-1.72 1.7-.72.36-1.533.54-2.44.54Zm.38-2.12c.627 0 1.187-.127 1.68-.38a2.884 2.884 0 0 0 1.14-1.08c.28-.467.42-1 .42-1.6 0-.6-.14-1.127-.42-1.58a2.583 2.583 0 0 0-1.14-1.06c-.493-.253-1.053-.38-1.68-.38s-1.193.127-1.7.38c-.493.24-.88.593-1.16 1.06-.267.453-.4.98-.4 1.58 0 .6.133 1.133.4 1.6.28.453.667.813 1.16 1.08.507.253 1.073.38 1.7.38ZM297.018 808.294v-10.68h2.5v10.68h-2.5Zm1.26-12.44c-.467 0-.854-.147-1.16-.44a1.442 1.442 0 0 1-.44-1.06c0-.427.146-.78.44-1.06.306-.293.693-.44 1.16-.44.466 0 .846.14 1.14.42.306.267.46.607.46 1.02 0 .44-.147.813-.44 1.12-.294.293-.68.44-1.16.44ZM290.025 808.434a9.703 9.703 0 0 1-2.58-.34c-.813-.24-1.46-.527-1.94-.86l.96-1.9c.48.307 1.053.56 1.72.76.667.2 1.333.3 2 .3.787 0 1.353-.107 1.7-.32.36-.213.54-.5.54-.86a.724.724 0 0 0-.36-.66c-.24-.16-.553-.28-.94-.36-.387-.08-.82-.153-1.3-.22-.467-.067-.94-.153-1.42-.26a5.458 5.458 0 0 1-1.28-.5 2.764 2.764 0 0 1-.94-.9c-.24-.373-.36-.867-.36-1.48 0-.68.193-1.267.58-1.76.387-.507.927-.893 1.62-1.16.707-.28 1.54-.42 2.5-.42.72 0 1.447.08 2.18.24.733.16 1.34.387 1.82.68l-.96 1.9a4.857 4.857 0 0 0-1.54-.62 6.575 6.575 0 0 0-1.52-.18c-.76 0-1.327.113-1.7.34-.36.227-.54.513-.54.86 0 .32.12.56.36.72.24.16.553.287.94.38.387.093.813.173 1.28.24.48.053.953.14 1.42.26.467.12.893.287 1.28.5.4.2.72.487.96.86s.36.86.36 1.46c0 .667-.2 1.247-.6 1.74-.387.493-.94.88-1.66 1.16-.72.267-1.58.4-2.58.4ZM279.303 808.434c-1.186 0-2.226-.233-3.12-.7a5.305 5.305 0 0 1-2.06-1.96c-.48-.827-.72-1.767-.72-2.82 0-1.067.234-2.007.7-2.82a5.171 5.171 0 0 1 1.96-1.94c.84-.467 1.794-.7 2.86-.7 1.04 0 1.967.227 2.78.68a4.91 4.91 0 0 1 1.92 1.92c.467.827.7 1.8.7 2.92 0 .107-.006.227-.02.36 0 .133-.006.26-.02.38h-8.9v-1.66h7.58l-.98.52c.014-.613-.113-1.153-.38-1.62a2.898 2.898 0 0 0-1.1-1.1c-.453-.267-.98-.4-1.58-.4-.613 0-1.153.133-1.62.4-.453.267-.813.64-1.08 1.12-.253.467-.38 1.02-.38 1.66v.4c0 .64.147 1.207.44 1.7.294.493.707.873 1.24 1.14.534.267 1.147.4 1.84.4.6 0 1.14-.093 1.62-.28a3.45 3.45 0 0 0 1.28-.88l1.34 1.54c-.48.56-1.086.993-1.82 1.3-.72.293-1.546.44-2.48.44ZM258 808.294v-14h6.12c1.52 0 2.853.293 4 .88 1.147.587 2.04 1.4 2.68 2.44.64 1.04.96 2.267.96 3.68 0 1.4-.32 2.627-.96 3.68-.64 1.04-1.533 1.853-2.68 2.44-1.147.587-2.48.88-4 .88H258Zm2.6-2.2h3.4c1.053 0 1.96-.2 2.72-.6.773-.4 1.367-.96 1.78-1.68.427-.72.64-1.56.64-2.52 0-.973-.213-1.813-.64-2.52a4.251 4.251 0 0 0-1.78-1.68c-.76-.4-1.667-.6-2.72-.6h-3.4v9.6Z" fill="#DFDFDF"/>
  <mask id="h" style="mask-type:alpha" maskUnits="userSpaceOnUse" x="280" y="723" width="47" height="47">
    <path fill="#FCA61F" d="M280 723h47v47h-47z"/>
  </mask>
  <g mask="url(#h)">
    <path d="M291.75 764.125c-1.469 0-2.921-.359-4.357-1.077-1.436-.718-2.595-1.664-3.476-2.839.848 0 1.713-.335 2.594-1.004.882-.669 1.322-1.64 1.322-2.913 0-1.632.572-3.019 1.714-4.161 1.142-1.143 2.529-1.714 4.161-1.714 1.632 0 3.019.571 4.162 1.714 1.142 1.142 1.713 2.529 1.713 4.161 0 2.154-.767 3.998-2.301 5.532-1.534 1.534-3.378 2.301-5.532 2.301Zm0-3.916c1.077 0 1.999-.384 2.766-1.151.767-.767 1.151-1.689 1.151-2.766 0-.555-.188-1.02-.563-1.395-.376-.376-.841-.563-1.396-.563-.555 0-1.02.187-1.395.563-.375.375-.563.84-.563 1.395 0 .751-.09 1.436-.269 2.056a9.284 9.284 0 0 1-.71 1.763c.163.065.326.098.489.098h.49Zm11.26-7.834-5.385-5.385 17.527-17.527c.359-.359.808-.547 1.346-.563a1.824 1.824 0 0 1 1.396.563l2.644 2.644c.391.391.587.848.587 1.371 0 .522-.196.979-.587 1.37l-17.528 17.527Z" fill="#FCA61F"/>
  </g>
  <circle cx="303.747" cy="626.747" r="20.747" fill="#FCA61F"/>
  <path d="M297.965 632.192c-2.992 0-4.96-2.512-4.96-5.76v-.032c0-3.248 2.016-5.792 4.992-5.792 2.96 0 4.96 2.512 4.96 5.76v.032c0 3.248-2 5.792-4.992 5.792Zm.032-2.224c1.488 0 2.432-1.504 2.432-3.536v-.032c0-2.032-.992-3.568-2.464-3.568s-2.432 1.488-2.432 3.536v.032c0 2.048.976 3.568 2.464 3.568Zm12.199.96v-1.344h-4.608c-.656 0-1.2-.48-1.2-1.136 0-.512.208-.912.576-1.344l4.864-5.648c.464-.544.816-.832 1.536-.832.656 0 1.184.512 1.184 1.168v5.792h.592c.56 0 1.008.448 1.008 1.008a.99.99 0 0 1-1.008.992h-.592v1.344c0 .656-.528 1.168-1.184 1.168a1.154 1.154 0 0 1-1.168-1.168Zm-2.976-3.344h2.976v-3.488l-2.976 3.488Z" fill="#0E0E0E"/>
  <g filter="url(#i)">
    <path d="M30 1041.05V928.805a9 9 0 0 1 4.489-7.788l92.345-53.491a9 9 0 0 1 8.793-.128l94.235 50.982a8.999 8.999 0 0 1 4.718 7.916V1038c0 3.16-1.655 6.08-4.361 7.71l-94.454 56.83a9.03 9.03 0 0 1-9.176.06l-92.126-53.77a9.02 9.02 0 0 1-4.463-7.78Z" fill="#161515"/>
  </g>
  <path d="M193.963 1023.77v-11.28c0-1.12.327-2.02.98-2.68.667-.68 1.614-1.02 2.84-1.02.44 0 .854.04 1.24.14.4.09.734.24 1 .44l-.68 1.88a1.65 1.65 0 0 0-.64-.32c-.24-.08-.486-.12-.74-.12-.52 0-.913.14-1.18.44-.266.28-.4.7-.4 1.28v1.2l.08 1.12v8.92h-2.5Zm-1.76-8.6v-2h7.12v2h-7.12ZM186.522 1023.77v-11.28c0-1.12.327-2.02.98-2.68.667-.68 1.613-1.02 2.84-1.02.44 0 .853.04 1.24.14.4.09.733.24 1 .44l-.68 1.88c-.187-.15-.4-.26-.64-.32-.24-.08-.487-.12-.74-.12-.52 0-.913.14-1.18.44-.267.28-.4.7-.4 1.28v1.2l.08 1.12v8.92h-2.5Zm-1.76-8.6v-2h7.12v2h-7.12ZM178.091 1023.91c-1.093 0-2.066-.24-2.92-.7a5.438 5.438 0 0 1-2.02-1.96c-.493-.83-.74-1.77-.74-2.82 0-1.07.247-2.01.74-2.82a5.168 5.168 0 0 1 2.02-1.94c.854-.47 1.827-.7 2.92-.7 1.107 0 2.087.23 2.94.7.867.46 1.54 1.1 2.02 1.92.494.81.74 1.76.74 2.84 0 1.05-.246 1.99-.74 2.82a5.238 5.238 0 0 1-2.02 1.96c-.853.46-1.833.7-2.94.7Zm0-2.14c.614 0 1.16-.14 1.64-.4.48-.27.854-.66 1.12-1.16.28-.51.42-1.1.42-1.78 0-.7-.14-1.29-.42-1.78-.266-.51-.64-.9-1.12-1.16-.48-.27-1.02-.4-1.62-.4-.613 0-1.16.13-1.64.4-.466.26-.84.65-1.12 1.16-.28.49-.42 1.08-.42 1.78 0 .68.14 1.27.42 1.78.28.5.654.89 1.12 1.16.48.26 1.02.4 1.62.4ZM164.861 1019.25v-2.08h5.5v2.08h-5.5ZM156.19 1023.91c-1.027 0-1.953-.23-2.78-.68a5.157 5.157 0 0 1-1.92-1.92c-.467-.82-.7-1.78-.7-2.88 0-1.11.233-2.07.7-2.88a4.898 4.898 0 0 1 1.92-1.9c.827-.46 1.753-.68 2.78-.68.893 0 1.693.2 2.4.6.707.38 1.267.98 1.68 1.78.413.8.62 1.82.62 3.08 0 1.24-.2 2.26-.6 3.08-.4.8-.953 1.4-1.66 1.8-.707.4-1.52.6-2.44.6Zm.3-2.14c.6 0 1.133-.14 1.6-.4.48-.27.86-.66 1.14-1.16.293-.51.44-1.1.44-1.78 0-.7-.147-1.29-.44-1.78-.28-.51-.66-.9-1.14-1.16-.467-.27-1-.4-1.6-.4-.6 0-1.14.13-1.62.4-.467.26-.847.65-1.14 1.16-.28.49-.42 1.08-.42 1.78 0 .68.14 1.27.42 1.78.293.5.673.89 1.14 1.16.48.26 1.02.4 1.62.4Zm3.24 2v-2.52l.1-2.84-.2-2.84v-6.64h2.48v14.84h-2.38ZM144.019 1012.97c.854 0 1.614.16 2.28.5.68.33 1.214.84 1.6 1.54.387.68.58 1.56.58 2.64v6.12h-2.5v-5.8c0-.95-.226-1.66-.68-2.12-.44-.47-1.06-.7-1.86-.7-.586 0-1.106.12-1.56.36-.453.24-.806.6-1.06 1.08-.24.46-.36 1.06-.36 1.78v5.4h-2.5v-10.68h2.38v2.88l-.42-.88c.374-.68.914-1.2 1.62-1.56.72-.38 1.547-.56 2.48-.56ZM132.391 1023.77v-2.16l-.14-.46v-3.78c0-.74-.22-1.3-.66-1.7-.44-.42-1.107-.62-2-.62-.6 0-1.194.09-1.78.28a4.13 4.13 0 0 0-1.46.78l-.98-1.82a5.742 5.742 0 0 1 2.04-.98c.8-.23 1.626-.34 2.48-.34 1.546 0 2.74.37 3.58 1.12.853.73 1.28 1.87 1.28 3.42v6.26h-2.36Zm-3.36.14c-.8 0-1.5-.14-2.1-.4-.6-.28-1.067-.66-1.4-1.14-.32-.5-.48-1.05-.48-1.66 0-.6.14-1.14.42-1.62.293-.48.766-.86 1.42-1.14.653-.28 1.52-.42 2.6-.42h3.1v1.66h-2.92c-.854 0-1.427.14-1.72.42-.294.26-.44.6-.44 1 0 .45.18.81.54 1.08.36.26.86.4 1.5.4.613 0 1.16-.14 1.64-.42a2.4 2.4 0 0 0 1.06-1.24l.42 1.5c-.24.62-.674 1.11-1.3 1.46-.614.34-1.394.52-2.34.52ZM119.699 1009.77h2.6v14h-2.6v-14Zm-7.24 14h-2.6v-14h2.6v14Zm7.44-6h-7.66v-2.22h7.66v2.22ZM95.37 1023.77l-4.58-10.68h2.6l3.94 9.42h-1.28l4.08-9.42h2.4l-4.58 10.68h-2.58ZM85.303 1023.91c-1.186 0-2.226-.24-3.12-.7a5.35 5.35 0 0 1-2.06-1.96c-.48-.83-.72-1.77-.72-2.82 0-1.07.234-2.01.7-2.82a5.097 5.097 0 0 1 1.96-1.94c.84-.47 1.794-.7 2.86-.7 1.04 0 1.967.22 2.78.68a4.878 4.878 0 0 1 1.92 1.92c.467.82.7 1.8.7 2.92 0 .1-.006.22-.02.36 0 .13-.006.26-.02.38h-8.9v-1.66h7.58l-.98.52c.014-.62-.113-1.16-.38-1.62a2.836 2.836 0 0 0-1.1-1.1c-.453-.27-.98-.4-1.58-.4-.613 0-1.153.13-1.62.4-.453.26-.813.64-1.08 1.12-.253.46-.38 1.02-.38 1.66v.4c0 .64.147 1.2.44 1.7.294.49.707.87 1.24 1.14.534.26 1.147.4 1.84.4.6 0 1.14-.1 1.62-.28.48-.19.907-.48 1.28-.88l1.34 1.54c-.48.56-1.086.99-1.82 1.3-.72.29-1.546.44-2.48.44ZM64 1023.77v-14h6.12c1.52 0 2.853.29 4 .88 1.147.58 2.04 1.4 2.68 2.44.64 1.04.96 2.26.96 3.68 0 1.4-.32 2.62-.96 3.68-.64 1.04-1.533 1.85-2.68 2.44-1.147.58-2.48.88-4 .88H64Zm2.6-2.2H70c1.053 0 1.96-.2 2.72-.6.773-.4 1.367-.96 1.78-1.68.427-.72.64-1.56.64-2.52 0-.98-.213-1.82-.64-2.52a4.251 4.251 0 0 0-1.78-1.68c-.76-.4-1.667-.6-2.72-.6h-3.4v9.6Z" fill="#DFDFDF"/>
  <mask id="j" style="mask-type:alpha" maskUnits="userSpaceOnUse" x="109" y="946" width="47" height="47">
    <path fill="#FCA61F" d="M109 946h47v47h-47z"/>
  </mask>
  <g mask="url(#j)">
    <path d="M112.917 959.708v-3.916c0-1.077.383-1.999 1.15-2.766.767-.767 1.689-1.151 2.766-1.151h31.334c1.077 0 1.999.384 2.766 1.151.767.767 1.15 1.689 1.15 2.766v3.916h-3.916v-3.916h-31.334v3.916h-3.916Zm11.75 27.417v-3.917h-7.834c-1.077 0-1.999-.383-2.766-1.15-.767-.767-1.15-1.689-1.15-2.766v-3.917h3.916v3.917h31.334v-3.917h3.916v3.917c0 1.077-.383 1.999-1.15 2.766-.767.767-1.689 1.15-2.766 1.15h-7.834v3.917h-15.666Zm-6.267-19.583 5.092-5.092-2.742-2.742-7.833 7.834 7.833 7.833 2.742-2.742-5.092-5.091Zm28.2 0-5.092 5.091 2.742 2.742 7.833-7.833-7.833-7.834-2.742 2.742 5.092 5.092Z" fill="#FCA61F"/>
  </g>
  <circle cx="132.747" cy="831.747" r="20.747" fill="#FCA61F"/>
  <path d="M127.441 837.192c-2.992 0-4.96-2.512-4.96-5.76v-.032c0-3.248 2.016-5.792 4.992-5.792 2.96 0 4.96 2.512 4.96 5.76v.032c0 3.248-2 5.792-4.992 5.792Zm.032-2.224c1.488 0 2.432-1.504 2.432-3.536v-.032c0-2.032-.992-3.568-2.464-3.568s-2.432 1.488-2.432 3.536v.032c0 2.048.976 3.568 2.464 3.568Zm10.792 2.224c-1.552 0-2.624-.416-3.52-1.056a1.143 1.143 0 0 1-.496-.944c0-.64.528-1.184 1.168-1.184.288 0 .48.08.672.224.688.496 1.344.72 2.128.72 1.04 0 1.808-.56 1.808-1.552v-.032c0-.96-.816-1.52-1.984-1.52-.944 0-1.36.288-1.696.288-.352 0-.624-.144-1.12-.496-.336-.24-.48-.576-.448-.992l.224-3.792c.032-.592.496-1.056 1.088-1.056h4.864a1.1 1.1 0 0 1 1.088 1.088c0 .592-.496 1.072-1.088 1.072h-3.776l-.128 1.936a5.479 5.479 0 0 1 1.472-.192c2.208 0 3.92 1.056 3.92 3.584v.032c0 2.368-1.712 3.872-4.176 3.872Z" fill="#0E0E0E"/>
  <defs>
    <filter id="a" x="168" y="239.435" width="264.58" height="297.509" filterUnits="userSpaceOnUse" color-interpolation-filters="sRGB">
      <feFlood flood-opacity="0" result="BackgroundImageFix"/>
      <feColorMatrix in="SourceAlpha" values="0 0 0 0 0 0 0 0 0 0 0 0 0 0 0 0 0 0 127 0" result="hardAlpha"/>
      <feOffset dy="10"/>
      <feGaussianBlur stdDeviation="15"/>
      <feComposite in2="hardAlpha" operator="out"/>
      <feColorMatrix values="0 0 0 0 0 0 0 0 0 0 0 0 0 0 0 0 0 0 0.12 0"/>
      <feBlend in2="BackgroundImageFix" result="effect1_dropShadow_44_57"/>
      <feBlend in="SourceGraphic" in2="effect1_dropShadow_44_57" result="shape"/>
    </filter>
    <filter id="c" x="8" y="32.99" width="264.58" height="297.509" filterUnits="userSpaceOnUse" color-interpolation-filters="sRGB">
      <feFlood flood-opacity="0" result="BackgroundImageFix"/>
      <feColorMatrix in="SourceAlpha" values="0 0 0 0 0 0 0 0 0 0 0 0 0 0 0 0 0 0 127 0" result="hardAlpha"/>
      <feOffset dy="10"/>
      <feGaussianBlur stdDeviation="15"/>
      <feComposite in2="hardAlpha" operator="out"/>
      <feColorMatrix values="0 0 0 0 0 0 0 0 0 0 0 0 0 0 0 0 0 0 0.12 0"/>
      <feBlend in2="BackgroundImageFix" result="effect1_dropShadow_44_57"/>
      <feBlend in="SourceGraphic" in2="effect1_dropShadow_44_57" result="shape"/>
    </filter>
    <filter id="e" x="4" y="444.314" width="264.58" height="297.509" filterUnits="userSpaceOnUse" color-interpolation-filters="sRGB">
      <feFlood flood-opacity="0" result="BackgroundImageFix"/>
      <feColorMatrix in="SourceAlpha" values="0 0 0 0 0 0 0 0 0 0 0 0 0 0 0 0 0 0 127 0" result="hardAlpha"/>
      <feOffset dy="10"/>
      <feGaussianBlur stdDeviation="15"/>
      <feComposite in2="hardAlpha" operator="out"/>
      <feColorMatrix values="0 0 0 0 0 0 0 0 0 0 0 0 0 0 0 0 0 0 0.12 0"/>
      <feBlend in2="BackgroundImageFix" result="effect1_dropShadow_44_57"/>
      <feBlend in="SourceGraphic" in2="effect1_dropShadow_44_57" result="shape"/>
    </filter>
    <filter id="g" x="171" y="639.314" width="264.58" height="297.509" filterUnits="userSpaceOnUse" color-interpolation-filters="sRGB">
      <feFlood flood-opacity="0" result="BackgroundImageFix"/>
      <feColorMatrix in="SourceAlpha" values="0 0 0 0 0 0 0 0 0 0 0 0 0 0 0 0 0 0 127 0" result="hardAlpha"/>
      <feOffset dy="10"/>
      <feGaussianBlur stdDeviation="15"/>
      <feComposite in2="hardAlpha" operator="out"/>
      <feColorMatrix values="0 0 0 0 0 0 0 0 0 0 0 0 0 0 0 0 0 0 0.12 0"/>
      <feBlend in2="BackgroundImageFix" result="effect1_dropShadow_44_57"/>
      <feBlend in="SourceGraphic" in2="effect1_dropShadow_44_57" result="shape"/>
    </filter>
    <filter id="i" x="0" y="846.314" width="264.58" height="297.509" filterUnits="userSpaceOnUse" color-interpolation-filters="sRGB">
      <feFlood flood-opacity="0" result="BackgroundImageFix"/>
      <feColorMatrix in="SourceAlpha" values="0 0 0 0 0 0 0 0 0 0 0 0 0 0 0 0 0 0 127 0" result="hardAlpha"/>
      <feOffset dy="10"/>
      <feGaussianBlur stdDeviation="15"/>
      <feComposite in2="hardAlpha" operator="out"/>
      <feColorMatrix values="0 0 0 0 0 0 0 0 0 0 0 0 0 0 0 0 0 0 0.12 0"/>
      <feBlend in2="BackgroundImageFix" result="effect1_dropShadow_44_57"/>
      <feBlend in="SourceGraphic" in2="effect1_dropShadow_44_57" result="shape"/>
    </filter>
  </defs>
</svg>
