<svg width="52" height="32" viewBox="0 0 52 32" fill="none" xmlns="http://www.w3.org/2000/svg">
<path d="M0.911999 11.912C1.64 16.784 5.784 20.256 10.488 20.48C9.312 24.848 6.456 26.584 2.984 27.592C2.648 27.704 2.704 28.04 2.704 28.04L3.264 31.512C3.264 31.512 3.32 31.792 3.768 31.736C15.752 30.392 23.872 21.264 22.36 10.176C20.96 2.50404 14.968 -0.463957 9.424 0.320043C3.88 1.21604 0.0719991 6.36804 0.911999 11.912ZM39.16 20.48C38.04 24.848 35.072 26.584 31.656 27.592C31.32 27.704 31.376 28.04 31.376 28.04L31.88 31.512C31.88 31.512 31.936 31.792 32.384 31.736C44.424 30.392 52.432 21.264 51.032 10.176C49.576 2.50404 43.528 -0.463957 38.04 0.320043C32.496 1.21604 28.688 6.36804 29.584 11.912C30.312 16.84 34.4 20.312 39.16 20.48Z" fill="#BC0547"/>
</svg>
