<svg width="39" height="144" viewBox="0 0 39 144" fill="none" xmlns="http://www.w3.org/2000/svg">
<path opacity="0.44" d="M27.1487 143.413L27.8202 142.268C28.0466 141.891 28.2881 141.537 28.4918 141.153C28.8917 140.377 29.3293 139.639 29.6764 138.856C30.4234 137.327 31.1025 135.79 31.6005 134.201C32.6418 131.052 33.3058 127.889 33.5171 124.74C33.5397 123.95 33.5925 123.174 33.6076 122.39C33.5774 121.607 33.6076 120.839 33.5246 120.063C33.4416 119.295 33.4341 118.534 33.3058 117.773L33.1549 116.643C33.1096 116.267 33.0115 115.898 32.9436 115.521L32.7173 114.414C32.6116 114.045 32.5211 113.683 32.4305 113.314C32.2721 112.584 32.0306 111.868 31.7967 111.16C31.593 110.459 31.2761 109.706 31.012 108.983C30.7479 108.253 30.4159 107.529 30.1292 106.806C29.518 105.36 28.8238 103.929 28.0843 102.521L26.9601 100.396C26.5752 99.6884 26.1602 98.988 25.7679 98.2799C24.1003 95.4855 22.3573 92.6609 20.4634 89.8439L14.7213 81.1819C13.7554 79.6905 12.8122 78.1917 11.8615 76.625L10.4354 74.2373L9.05459 71.8044C7.30404 68.4977 5.67421 65.0631 4.31602 61.4778C2.99556 57.8849 1.85619 54.164 1.13937 50.3377C0.407453 46.5264 -0.0226397 42.6247 -3.25119e-06 38.7457C-0.00754875 36.8024 0.0754517 34.8741 0.248998 32.9534C0.362181 31.9893 0.452726 31.0553 0.596091 30.0762L1.12428 27.0557C1.36573 26.0615 1.62982 25.0748 1.90146 24.0956C2.19574 23.124 2.58056 22.1674 2.9201 21.2183C3.6822 19.3353 4.54239 17.4974 5.61385 15.7726C7.68886 12.3078 10.36 9.24217 13.4385 6.76409C16.5246 4.30107 20.0106 2.40296 23.6627 1.30327C25.4811 0.738355 27.3373 0.369279 29.1784 0.150846C30.1141 0.0981209 31.0271 0.000202699 31.9476 0.00773487C32.8682 0.0227992 33.7812 0.0679922 34.6791 0.12825L34.7772 0.956788C31.3515 1.40119 28.0013 2.3879 24.9228 3.9094C21.8367 5.4309 19.0297 7.47965 16.6454 9.93513C11.8238 14.816 8.73768 21.3012 7.71904 28.0651L7.43985 30.6185C7.37195 31.4771 7.35685 32.3433 7.30404 33.202C7.25876 34.9269 7.25876 36.6517 7.37195 38.3766C7.56058 41.8188 8.05104 45.2459 8.82823 48.6128C10.3751 55.3466 13.0763 61.779 16.3888 67.8575C19.6862 73.951 23.6099 79.7508 27.2241 85.7539C30.846 91.7495 34.249 97.9711 36.4749 104.697C37.5841 108.042 38.4141 111.529 38.6631 115.084C38.9272 118.624 38.7008 122.21 37.9463 125.682C36.3919 132.619 32.7852 139.052 27.7448 144.008L27.1487 143.413Z" fill="#A88064"/>
</svg>
